<?xml version="1.0" encoding="utf-8"?>
<!-- Generator: Adobe Illustrator 16.0.1, SVG Export Plug-In . SVG Version: 6.00 Build 0)  -->
<!DOCTYPE svg PUBLIC "-//W3C//DTD SVG 1.1//EN" "http://www.w3.org/Graphics/SVG/1.1/DTD/svg11.dtd">
<svg version="1.1" id="Layer_1" xmlns="http://www.w3.org/2000/svg" xmlns:xlink="http://www.w3.org/1999/xlink" x="0px" y="0px"
	 width="1200px" height="1200px" viewBox="0 0 1200 1200" enable-background="new 0 0 1200 1200" xml:space="preserve">
<g>
	<path fill="#28A8E2" d="M681.63,458.923l-81.636-81.491l-81.635,81.496l-0.523-0.523c-21.856-22.356-21.856-58.082,0-80.438
		l41.347-41.275c22.539-22.506,59.09-22.506,81.635,0l40.813,40.741C704.174,399.938,704.174,436.422,681.63,458.923z
		 M722.447,581.172L599.994,458.928L477.548,581.166c-22.545,22.501-22.55,58.991-0.006,81.496l0.006,0.006l122.446-122.242
		l122.453,122.236C744.991,640.157,744.991,603.677,722.447,581.172z M804.082,418.183l-81.63,81.491l40.818,40.746l122.446-122.243
		C863.178,395.677,826.615,395.682,804.082,418.183z M395.907,418.177c-22.539-22.5-59.085-22.5-81.629,0L436.729,540.42
		l40.818-40.746L395.907,418.177z"/>
	<g>
		<g>
			<path fill="#0F2734" d="M229.572,719.802l31.26,110.607l33.426-110.607h23.802l33.668,110.607l31.017-110.607h29.573
				l-47.609,160.388h-26.21l-32.461-105.802l-32.224,105.802h-26.21L200,719.802H229.572z"/>
			<path fill="#0F2734" d="M445.5,833.539c3.848,14.586,12.75,21.884,26.695,21.884c11.856,0,20.753-4.729,26.689-14.188
				c0.32-0.48,0.794-1.201,1.445-2.16l23.078,9.607c-3.361,5.617-5.964,9.586-7.81,11.906c-1.847,2.326-4.455,4.851-7.822,7.58
				c-10.093,8.015-21.961,12.021-35.581,12.021c-16.674,0-30.295-6.17-40.878-18.516c-9.305-10.738-13.945-23.565-13.945-38.475
				c0-16.989,5.849-31.101,17.545-42.322c10.264-9.614,22.367-14.426,36.314-14.426c16.673,0,29.979,6.256,39.912,18.753
				c8.659,10.908,12.981,24.451,12.981,40.641c0,1.284-0.076,3.847-0.231,7.694H445.5z M496.725,813.101
				c-4.658-14.909-13.152-22.362-25.493-22.362c-6.417,0-11.874,1.923-16.351,5.771c-4.485,3.847-7.623,9.377-9.381,16.592H496.725z
				"/>
			<path fill="#0F2734" d="M630.896,746.254h-55.788v39.435h50.981v26.448h-50.981v68.053h-28.365V719.802h84.153V746.254z"/>
			<path fill="#0F2734" d="M746.811,770.051v110.139h-27.423v-9.139c-4.179,3.367-8.093,5.727-11.785,7.104
				c-3.683,1.357-7.938,2.035-12.744,2.035c-6.251,0-12.348-1.285-18.267-3.849c-5.932-2.557-10.914-6.014-14.917-10.341
				c-7.849-8.488-11.773-21.409-11.773-38.716v-57.233h27.406v55.309c0,12.188,1.765,20.201,5.292,24.055
				c3.517,3.842,8.246,5.771,14.188,5.771c7.861,0,13.781-2.403,17.794-7.221c3.208-4.162,4.807-12.425,4.807-24.761v-53.153
				H746.811z"/>
			<path fill="#0F2734" d="M799.7,779.195c4.167-3.368,8.091-5.728,11.784-7.095c3.683-1.354,8.01-2.039,12.981-2.039
				c6.256,0,12.303,1.247,18.157,3.726c5.848,2.486,10.854,5.976,15.025,10.458c7.689,8.339,11.543,21.243,11.543,38.712v57.232
				h-27.407v-55.546c0-12.022-1.763-20.038-5.291-24.046c-3.374-3.846-8.097-5.771-14.188-5.771c-7.854,0-13.703,2.491-17.557,7.452
				c-3.367,4.174-5.048,12.349-5.048,24.529v53.381h-27.418V773.667H799.7V779.195z"/>
			<path fill="#0F2734" d="M972.594,719.809v56.984c-4.978-3.849-9.619-6.539-13.963-8.055c-4.315-1.521-9.211-2.287-14.662-2.287
				c-14.42,0-27.021,4.812-37.747,14.431c-12.177,11.229-18.283,25.328-18.283,42.322c0,14.751,4.817,27.495,14.431,38.227
				c11.074,12.513,24.926,18.759,41.6,18.759c5.451,0,10.347-0.811,14.662-2.404c4.344-1.603,8.985-4.25,13.963-7.938v10.342H1000
				V719.809H972.594z M965.853,845.088c-5.292,6.725-12.419,10.098-21.404,10.098c-7.854,0-14.425-2.563-19.717-7.7
				c-6.08-6.091-9.133-14.188-9.133-24.281c0-8.818,2.325-16.112,6.983-21.883c5.439-6.741,12.732-10.114,21.866-10.114
				c7.854,0,14.343,2.65,19.486,7.942c5.925,5.931,8.891,13.946,8.891,24.055C972.825,832.007,970.499,839.316,965.853,845.088z"/>
		</g>
	</g>
</g>
</svg>
